<?xml version="1.0" encoding="utf-8"?><svg xml:space="preserve" viewBox="0 0 100 100" y="0" x="0" xmlns="http://www.w3.org/2000/svg" id="圖層_1" version="1.1" width="200px" height="200px" xmlns:xlink="http://www.w3.org/1999/xlink" style="width:100%;height:100%;background-size:initial;background-repeat-y:initial;background-repeat-x:initial;background-position-y:initial;background-position-x:initial;background-origin:initial;background-color:initial;background-clip:initial;background-attachment:initial;animation-play-state:paused" ><g class="ldl-scale" style="transform-origin:50% 50%;transform:rotate(0deg) scale(0.8, 0.8);animation-play-state:paused" ><path stroke-miterlimit="10" stroke-width="5" stroke="#000" fill="#fff" d="M89.4 48.2c.8 1.1.8 2.6 0 3.7C84.9 58.1 69 78.5 50 78.5S15.1 58.1 10.6 51.8c-.8-1.1-.8-2.6 0-3.7C15.1 41.9 31 21.5 50 21.5s34.9 20.4 39.4 26.7z" style="fill:rgb(255, 255, 255);animation-play-state:paused" ></path>
<circle stroke-miterlimit="10" stroke-width="5" stroke="#000" fill="#32aab4" r="19.8" cy="42" cx="50" style="fill:rgb(50, 170, 180);animation-play-state:paused" ></circle>
<path stroke-linejoin="round" stroke-linecap="round" stroke-width="4" stroke="#fff" fill="none" d="M38.5 41.2c.7-5.9 5.5-10.7 11.7-11" style="stroke:rgb(255, 255, 255);animation-play-state:paused" ></path>
<g style="animation-play-state:paused" ><path d="M-2.1 40.5h99.2v14H-2.1z" fill="#c33737" transform="rotate(-45.001 47.524 47.525)" style="fill:rgb(195, 55, 55);animation-play-state:paused" ></path></g>
<path d="M5.4 51.5h99.2v7H5.4z" fill="#fff" transform="rotate(-45.001 54.951 54.953)" style="fill:rgb(255, 255, 255);animation-play-state:paused" ></path>
<metadata xmlns:d="https://loading.io/stock/" style="animation-play-state:paused" ><d:name style="animation-play-state:paused" >eye</d:name>


<d:tags style="animation-play-state:paused" >close,eyelash,eyelid,see,view,privacy,invisible,private,eye,web application</d:tags>


<d:license style="animation-play-state:paused" >by</d:license>


<d:slug style="animation-play-state:paused" >xa2lo5</d:slug></metadata></g><!-- generated by https://loading.io/ --></svg>